<svg width="34" height="33" viewBox="0 0 34 33" fill="none" xmlns="http://www.w3.org/2000/svg">
<g style="mix-blend-mode:luminosity">
<path d="M22.6667 11C24.921 11 27.0831 11.8692 28.6771 13.4164C30.2712 14.9635 31.1667 17.062 31.1667 19.25V28.875H25.5V19.25C25.5 18.5207 25.2015 17.8212 24.6702 17.3055C24.1388 16.7897 23.4182 16.5 22.6667 16.5C21.9153 16.5 21.1946 16.7897 20.6632 17.3055C20.1319 17.8212 19.8334 18.5207 19.8334 19.25V28.875H14.1667V19.25C14.1667 17.062 15.0622 14.9635 16.6563 13.4164C18.2504 11.8692 20.4124 11 22.6667 11Z" stroke="#1E1E1E" stroke-width="4" stroke-linecap="round" stroke-linejoin="round"/>
<path d="M8.50004 12.375H2.83337V28.875H8.50004V12.375Z" stroke="#1E1E1E" stroke-width="4" stroke-linecap="round" stroke-linejoin="round"/>
<path d="M5.66671 8.25C7.23151 8.25 8.50004 7.01878 8.50004 5.5C8.50004 3.98122 7.23151 2.75 5.66671 2.75C4.1019 2.75 2.83337 3.98122 2.83337 5.5C2.83337 7.01878 4.1019 8.25 5.66671 8.25Z" stroke="#1E1E1E" stroke-width="4" stroke-linecap="round" stroke-linejoin="round"/>
</g>
</svg>
