<svg width="108" height="40" viewBox="0 0 108 40" fill="none" xmlns="http://www.w3.org/2000/svg">
<path d="M108 5.05C108 5.00358 108 4.98036 108 4.96073C107.978 2.23001 105.77 0.0216017 103.039 0.000154212C103.02 0 102.996 0 102.95 0H5.05C5.00358 0 4.98036 0 4.96073 0.000154212C2.23001 0.0216017 0.0215988 2.23001 0.000152588 4.96073C0 4.98036 0 5.00358 0 5.05V34.95C0 34.9964 0 35.0196 0.000152588 35.0393C0.0215988 37.77 2.23001 39.9784 4.96073 39.9998C4.98036 40 5.00358 40 5.05 40H102.95C102.996 40 103.02 40 103.039 39.9998C105.77 39.9784 107.978 37.77 108 35.0393C108 35.0196 108 34.9964 108 34.95V5.05Z" fill="#DBE2EF"/>
</svg>
